<svg width="512" height="512" viewBox="0 0 512 512" fill="none" xmlns="http://www.w3.org/2000/svg">
<g clip-path="url(#clip0_231_99)">
<path d="M-202.199 330.11L-130.129 203.202H-46.2663C-21.8062 259.987 18.7276 387.733 -14.8176 444.441C-48.3629 501.149 -62.8642 456.636 -65.9217 427.291C-117.288 439.182 -130.129 407.855 -130.129 390.705C-202.461 414.486 -208.314 360.217 -202.199 330.11Z" fill="#440919"/>
<path d="M271.28 -40.1213C-56.5625 -40.1213 -88.6793 205.298 -56.5624 328.008C-56.5624 519.982 22.0244 616 271.28 616C489.028 616 575.348 539.494 575.348 328.008C607.882 245.367 575.348 -40.1213 271.28 -40.1213Z" fill="#FEC7A9"/>
<path d="M328.548 446.735C328.548 438.09 321.504 431.016 312.596 430.457C274.845 446.664 252.886 452.907 204.353 430.457C195.445 431.016 188.401 438.09 188.401 446.735C188.401 455.379 195.445 462.453 204.353 463.012C257.54 492.984 276.805 480.806 312.596 463.012C321.504 462.453 328.548 455.379 328.548 446.735Z" fill="#F26D5B"/>
<path d="M260.893 265.181C205.82 362.991 228.054 365.47 260.893 376.621C293.427 366.604 314.699 359.091 260.893 265.181Z" fill="#F26D5B"/>
<path d="M143.659 -126.173C1.65072 -129.749 -60.1269 28.4393 -226.339 197.901C-229.475 201.099 -227.226 206.599 -222.747 206.639C-102.48 207.694 -63.8117 240.737 150.91 142.512C252.64 95.9746 328.486 55.76 326.949 -1.19474C324.106 -106.539 218.158 -124.297 143.659 -126.173Z" fill="#440919"/>
<path d="M510.828 -79.1441C424.771 -176.703 233.605 -115.873 249.215 -28.6437C280.848 148.11 487.497 205.88 585.411 252.555C612.031 256.228 627.101 277.806 631.308 288.136C648.749 347.819 599.563 370.392 572.789 374.217C578.297 385.236 563.61 444.613 555.578 472.924C605.147 475.679 611.419 430.457 615.244 408.65C673.993 436.196 685.62 397.173 684.09 374.217C783.228 393.5 774.354 310.326 757.526 266.329C754.083 253.703 648.839 77.3132 510.828 -79.1441Z" fill="#440919"/>
<ellipse cx="58.5218" cy="86.2605" rx="58.5218" ry="86.2605" transform="matrix(0.908111 -0.41873 0.418536 0.9082 -46.6436 323.296)" fill="#F26D5B"/>
<ellipse cx="58.5221" cy="86.26" rx="58.5221" ry="86.26" transform="matrix(-0.896988 -0.442054 -0.441854 0.897087 569.27 326.102)" fill="#F26D5B"/>
<path d="M498.615 314.153H335.861C318.333 203.588 346.067 172.999 400.962 168.408C491.103 160.869 529.148 259.561 498.615 314.153Z" fill="white"/>
<path d="M440.217 314.5H357.405C354.397 307.941 350.133 297.461 346.954 286.968C345.341 281.644 344.01 276.326 343.263 271.521C342.553 266.957 342.377 262.895 342.961 259.74C356.259 263.202 368.037 265.173 377.201 265.64C381.841 265.876 385.826 265.729 389.005 265.187C392.169 264.648 394.606 263.707 396.075 262.299C396.817 261.587 397.315 260.753 397.523 259.8C397.73 258.85 397.642 257.816 397.273 256.711C396.54 254.519 394.677 251.989 391.624 249.121C385.579 243.441 374.69 236.272 357.9 227.607C365.163 219.89 377.717 211.862 392.324 210.252C407.199 208.612 424.268 213.619 440.129 232.54C446.977 240.71 451.306 253.422 451.745 268.037C452.182 282.562 448.773 298.929 440.217 314.5Z" fill="black" stroke="black"/>
<path d="M10.3853 314.153H173.139C190.667 203.588 162.933 172.999 108.038 168.408C17.8972 160.869 -20.1477 259.561 10.3853 314.153Z" fill="white"/>
<path d="M153.211 314.5H70.3996C67.3908 307.941 63.127 297.461 59.9481 286.968C58.3349 281.644 57.0041 276.326 56.257 271.521C55.5473 266.957 55.3707 262.895 55.9556 259.74C69.2529 263.202 81.0314 265.173 90.1951 265.64C94.8347 265.876 98.8197 265.729 101.999 265.187C105.163 264.648 107.6 263.707 109.069 262.299C109.812 261.587 110.309 260.753 110.517 259.8C110.724 258.85 110.637 257.816 110.267 256.711C109.534 254.519 107.671 251.989 104.618 249.121C98.5734 243.441 87.6844 236.272 70.8939 227.607C78.1575 219.89 90.7112 211.862 105.318 210.252C120.193 208.612 137.262 213.619 153.123 232.54C159.971 240.71 164.3 253.422 164.74 268.037C165.176 282.562 161.767 298.929 153.211 314.5Z" fill="black" stroke="black"/>
</g>
<defs>
<clipPath id="clip0_231_99">
<rect width="512" height="512" fill="white"/>
</clipPath>
</defs>
</svg>
